<mxfile host="65bd71144e">
    <diagram id="7XYEIS8ruApfTI__VF03" name="第 1 页">
        <mxGraphModel dx="822" dy="485" grid="1" gridSize="10" guides="1" tooltips="1" connect="1" arrows="1" fold="1" page="1" pageScale="1" pageWidth="827" pageHeight="1169" math="0" shadow="0">
            <root>
                <mxCell id="0"/>
                <mxCell id="1" parent="0"/>
                <mxCell id="2" value="Singleton" style="swimlane;fontStyle=0;childLayout=stackLayout;horizontal=1;startSize=30;horizontalStack=0;resizeParent=1;resizeParentMax=0;resizeLast=0;collapsible=1;marginBottom=0;fillColor=#2A2A2A;labelBackgroundColor=default;fontColor=default;labelBorderColor=none;strokeColor=#FFFFFF;" parent="1" vertex="1">
                    <mxGeometry x="270" y="80" width="140" height="100" as="geometry"/>
                </mxCell>
                <mxCell id="7" style="edgeStyle=none;html=1;exitX=1;exitY=0.5;exitDx=0;exitDy=0;entryX=0.5;entryY=0;entryDx=0;entryDy=0;startArrow=diamondThin;startFill=0;endArrow=none;endFill=0;targetPerimeterSpacing=1;rounded=0;startSize=10;sourcePerimeterSpacing=-1;fillColor=#2A2A2A;labelBackgroundColor=default;fontColor=default;labelBorderColor=none;strokeColor=#FFFFFF;" parent="2" source="3" target="2" edge="1">
                    <mxGeometry relative="1" as="geometry">
                        <Array as="points">
                            <mxPoint x="160" y="45"/>
                            <mxPoint x="160" y="-30"/>
                            <mxPoint x="70" y="-30"/>
                        </Array>
                    </mxGeometry>
                </mxCell>
                <mxCell id="20" value="instance" style="edgeLabel;html=1;align=center;verticalAlign=middle;resizable=0;points=[];fillColor=#2A2A2A;labelBackgroundColor=default;fontColor=default;labelBorderColor=none;strokeColor=#FFFFFF;" parent="7" vertex="1" connectable="0">
                    <mxGeometry x="0.4243" relative="1" as="geometry">
                        <mxPoint x="18" as="offset"/>
                    </mxGeometry>
                </mxCell>
                <mxCell id="3" value="- instance: Singleton" style="text;strokeColor=#FFFFFF;fillColor=#2A2A2A;align=left;verticalAlign=middle;spacingLeft=4;spacingRight=4;overflow=hidden;points=[[0,0.5],[1,0.5]];portConstraint=eastwest;rotatable=0;labelBackgroundColor=default;fontColor=default;labelBorderColor=none;" parent="2" vertex="1">
                    <mxGeometry y="30" width="140" height="30" as="geometry"/>
                </mxCell>
                <mxCell id="4" value="- Singleton()&#10;+ getInstance: Singleton" style="text;strokeColor=#FFFFFF;fillColor=#2A2A2A;align=left;verticalAlign=middle;spacingLeft=4;spacingRight=4;overflow=hidden;points=[[0,0.5],[1,0.5]];portConstraint=eastwest;rotatable=0;labelBackgroundColor=default;fontColor=default;labelBorderColor=none;" parent="2" vertex="1">
                    <mxGeometry y="60" width="140" height="40" as="geometry"/>
                </mxCell>
                <mxCell id="8" value="调用方 Client" style="swimlane;fontStyle=0;childLayout=stackLayout;horizontal=1;startSize=30;horizontalStack=0;resizeParent=1;resizeParentMax=0;resizeLast=0;collapsible=1;marginBottom=0;strokeColor=#FFFFFF;fillColor=#2A2A2A;labelBackgroundColor=default;fontColor=default;labelBorderColor=none;" parent="1" vertex="1">
                    <mxGeometry x="60" y="80" width="140" height="80" as="geometry"/>
                </mxCell>
                <mxCell id="9" value="# instance: Singleton" style="text;strokeColor=#FFFFFF;fillColor=#2A2A2A;align=left;verticalAlign=middle;spacingLeft=4;spacingRight=4;overflow=hidden;points=[[0,0.5],[1,0.5]];portConstraint=eastwest;rotatable=0;labelBackgroundColor=default;fontColor=default;labelBorderColor=none;" parent="8" vertex="1">
                    <mxGeometry y="30" width="140" height="30" as="geometry"/>
                </mxCell>
                <mxCell id="21" value="" style="rounded=0;whiteSpace=wrap;html=1;strokeColor=#FFFFFF;fillColor=#2A2A2A;labelBackgroundColor=default;fontColor=default;labelBorderColor=none;" parent="8" vertex="1">
                    <mxGeometry y="60" width="140" height="20" as="geometry"/>
                </mxCell>
                <mxCell id="12" value="" style="endArrow=open;html=1;targetPerimeterSpacing=1;exitX=1;exitY=0.5;exitDx=0;exitDy=0;entryX=0;entryY=0.5;entryDx=0;entryDy=0;dashed=1;rounded=0;endFill=0;startSize=10;fillColor=#2A2A2A;labelBackgroundColor=default;fontColor=default;labelBorderColor=none;strokeColor=#FFFFFF;" parent="1" source="9" target="3" edge="1">
                    <mxGeometry width="50" height="50" relative="1" as="geometry">
                        <mxPoint x="180" y="220" as="sourcePoint"/>
                        <mxPoint x="230" y="170" as="targetPoint"/>
                    </mxGeometry>
                </mxCell>
                <mxCell id="13" value="Multiton" style="swimlane;fontStyle=0;childLayout=stackLayout;horizontal=1;startSize=30;horizontalStack=0;resizeParent=1;resizeParentMax=0;resizeLast=0;collapsible=1;marginBottom=0;fontColor=default;labelBackgroundColor=#2A2A2A;shadow=0;fillColor=#2A2A2A;" parent="1" vertex="1">
                    <mxGeometry x="274" y="260" width="156" height="100" as="geometry"/>
                </mxCell>
                <mxCell id="14" style="edgeStyle=none;html=1;exitX=1;exitY=0.5;exitDx=0;exitDy=0;entryX=0.5;entryY=0;entryDx=0;entryDy=0;startArrow=diamondThin;startFill=0;endArrow=none;endFill=0;targetPerimeterSpacing=1;rounded=0;startSize=10;sourcePerimeterSpacing=-1;fontColor=default;labelBackgroundColor=#2A2A2A;shadow=0;fillColor=#2A2A2A;" parent="13" source="15" target="13" edge="1">
                    <mxGeometry relative="1" as="geometry">
                        <Array as="points">
                            <mxPoint x="176" y="45"/>
                            <mxPoint x="176" y="-30"/>
                            <mxPoint x="78" y="-30"/>
                        </Array>
                    </mxGeometry>
                </mxCell>
                <mxCell id="23" value="instance" style="edgeLabel;html=1;align=center;verticalAlign=middle;resizable=0;points=[];fontColor=default;" vertex="1" connectable="0" parent="14">
                    <mxGeometry x="0.2418" relative="1" as="geometry">
                        <mxPoint as="offset"/>
                    </mxGeometry>
                </mxCell>
                <mxCell id="15" value="- instanceList: Multiton[]" style="text;strokeColor=default;fillColor=#2A2A2A;align=left;verticalAlign=middle;spacingLeft=4;spacingRight=4;overflow=hidden;points=[[0,0.5],[1,0.5]];portConstraint=eastwest;rotatable=0;fontColor=default;labelBackgroundColor=#2A2A2A;shadow=0;" parent="13" vertex="1">
                    <mxGeometry y="30" width="156" height="30" as="geometry"/>
                </mxCell>
                <mxCell id="16" value="- Multiton()&#10;+ getInstance: Multiton" style="text;strokeColor=none;fillColor=#2A2A2A;align=left;verticalAlign=middle;spacingLeft=4;spacingRight=4;overflow=hidden;points=[[0,0.5],[1,0.5]];portConstraint=eastwest;rotatable=0;fontColor=default;labelBackgroundColor=default;shadow=0;" parent="13" vertex="1">
                    <mxGeometry y="60" width="156" height="40" as="geometry"/>
                </mxCell>
                <mxCell id="17" value="调用方 Client" style="swimlane;fontStyle=0;childLayout=stackLayout;horizontal=1;startSize=30;horizontalStack=0;resizeParent=1;resizeParentMax=0;resizeLast=0;collapsible=1;marginBottom=0;strokeColor=default;fontColor=default;labelBackgroundColor=#2A2A2A;shadow=0;fillColor=#2A2A2A;" parent="1" vertex="1">
                    <mxGeometry x="64" y="260" width="140" height="80" as="geometry"/>
                </mxCell>
                <mxCell id="18" value="# instance: Multiton" style="text;strokeColor=none;fillColor=#2A2A2A;align=left;verticalAlign=middle;spacingLeft=4;spacingRight=4;overflow=hidden;points=[[0,0.5],[1,0.5]];portConstraint=eastwest;rotatable=0;fontColor=default;labelBackgroundColor=#2A2A2A;shadow=0;" parent="17" vertex="1">
                    <mxGeometry y="30" width="140" height="30" as="geometry"/>
                </mxCell>
                <mxCell id="22" value="" style="rounded=0;whiteSpace=wrap;html=1;strokeColor=default;fontColor=default;labelBackgroundColor=#2A2A2A;shadow=0;fillColor=#2A2A2A;" parent="17" vertex="1">
                    <mxGeometry y="60" width="140" height="20" as="geometry"/>
                </mxCell>
                <mxCell id="19" value="" style="endArrow=open;html=1;targetPerimeterSpacing=1;exitX=1;exitY=0.5;exitDx=0;exitDy=0;entryX=0;entryY=0.5;entryDx=0;entryDy=0;dashed=1;rounded=0;endFill=0;startSize=10;fontColor=default;labelBackgroundColor=#2A2A2A;shadow=0;fillColor=#2A2A2A;" parent="1" source="18" target="15" edge="1">
                    <mxGeometry width="50" height="50" relative="1" as="geometry">
                        <mxPoint x="184" y="400" as="sourcePoint"/>
                        <mxPoint x="234" y="350" as="targetPoint"/>
                    </mxGeometry>
                </mxCell>
            </root>
        </mxGraphModel>
    </diagram>
</mxfile>